<?xml version="1.0" encoding="utf-8"?>
<svg version="1.1" id="Layer_2" xmlns="http://www.w3.org/2000/svg" xmlns:xlink="http://www.w3.org/1999/xlink" x="0px" y="0px" viewBox="0 0 96 96" style="enable-background:new 0 0 96 96;" xml:space="preserve">
<style type="text/css">
.st0{fill:#F91515;}
.st1{fill:#FFFFFF;}
</style>
<circle class="st0" cx="48" cy="48" r="48"/>
<g>
<path class="st1" d="M68.9,53.5l-4.8,4.8c-8.9-8.9-23.3-8.9-32.2,0l-4.8-4.8C38.6,41.9,57.4,41.9,68.9,53.5z"/>
</g>
<g>
<path class="st1" d="M55,67.3l-7,7l-7-7C44.8,63.5,51.2,63.5,55,67.3z"/>
</g>
<line class="st1" x1="48" y1="74.4" x2="41" y2="67.3"/>
<line class="st1" x1="55" y1="67.3" x2="48" y2="74.4"/>
<path class="st1" d="M82.8,39.6c-19.2-19.2-50.4-19.2-69.6,0l4.8,4.9c16.6-16.6,43.3-16.6,59.9,0L82.8,39.6z"/>
</svg>